<mxfile host="Electron" agent="Mozilla/5.0 (Windows NT 10.0; Win64; x64) AppleWebKit/537.36 (KHTML, like Gecko) draw.io/24.7.17 Chrome/128.0.6613.36 Electron/32.0.1 Safari/537.36" version="24.7.17">
  <diagram name="Page-1" id="VmHKmfUE9KVC_jt5b50s">
    <mxGraphModel dx="3614" dy="1198" grid="1" gridSize="10" guides="1" tooltips="1" connect="1" arrows="1" fold="1" page="1" pageScale="1" pageWidth="827" pageHeight="1169" math="0" shadow="0">
      <root>
        <mxCell id="0" />
        <mxCell id="1" parent="0" />
        <mxCell id="46WT86W8ZebrYgX9wmy_-6" style="edgeStyle=orthogonalEdgeStyle;rounded=0;orthogonalLoop=1;jettySize=auto;html=1;exitX=0.5;exitY=1;exitDx=0;exitDy=0;" parent="1" source="46WT86W8ZebrYgX9wmy_-1" target="46WT86W8ZebrYgX9wmy_-2" edge="1">
          <mxGeometry relative="1" as="geometry" />
        </mxCell>
        <mxCell id="46WT86W8ZebrYgX9wmy_-1" value="START" style="ellipse;whiteSpace=wrap;html=1;fillColor=#60a917;fontColor=#ffffff;strokeColor=#2D7600;" parent="1" vertex="1">
          <mxGeometry x="206" y="160" width="130" height="70" as="geometry" />
        </mxCell>
        <mxCell id="oyWgZkVQvpPqm8uU8-76-2" style="edgeStyle=orthogonalEdgeStyle;rounded=0;orthogonalLoop=1;jettySize=auto;html=1;exitX=0.5;exitY=1;exitDx=0;exitDy=0;" parent="1" source="46WT86W8ZebrYgX9wmy_-2" target="46WT86W8ZebrYgX9wmy_-4" edge="1">
          <mxGeometry relative="1" as="geometry" />
        </mxCell>
        <mxCell id="46WT86W8ZebrYgX9wmy_-2" value="MENU" style="shape=process;whiteSpace=wrap;html=1;backgroundOutline=1;fillColor=#1ba1e2;strokeColor=#000000;fontColor=#ffffff;" parent="1" vertex="1">
          <mxGeometry x="211" y="290" width="120" height="60" as="geometry" />
        </mxCell>
        <mxCell id="46WT86W8ZebrYgX9wmy_-8" style="edgeStyle=orthogonalEdgeStyle;rounded=0;orthogonalLoop=1;jettySize=auto;html=1;exitX=1;exitY=0.5;exitDx=0;exitDy=0;" parent="1" source="46WT86W8ZebrYgX9wmy_-4" target="46WT86W8ZebrYgX9wmy_-7" edge="1">
          <mxGeometry relative="1" as="geometry" />
        </mxCell>
        <mxCell id="oyWgZkVQvpPqm8uU8-76-1" style="edgeStyle=orthogonalEdgeStyle;rounded=0;orthogonalLoop=1;jettySize=auto;html=1;exitX=0;exitY=0.5;exitDx=0;exitDy=0;" parent="1" source="46WT86W8ZebrYgX9wmy_-4" target="46WT86W8ZebrYgX9wmy_-28" edge="1">
          <mxGeometry relative="1" as="geometry" />
        </mxCell>
        <mxCell id="ohu0Xb9F8poQxh4BpGcP-58" style="edgeStyle=orthogonalEdgeStyle;rounded=0;orthogonalLoop=1;jettySize=auto;html=1;exitX=0.5;exitY=1;exitDx=0;exitDy=0;" parent="1" source="46WT86W8ZebrYgX9wmy_-4" target="ohu0Xb9F8poQxh4BpGcP-57" edge="1">
          <mxGeometry relative="1" as="geometry" />
        </mxCell>
        <mxCell id="46WT86W8ZebrYgX9wmy_-4" value="1 - BEGIN GAME&lt;div&gt;2 - CREDITS&lt;/div&gt;&lt;div&gt;3 - QUIT&lt;/div&gt;" style="rhombus;whiteSpace=wrap;html=1;fillColor=#76608a;fontColor=#ffffff;strokeColor=#432D57;" parent="1" vertex="1">
          <mxGeometry x="201" y="420" width="140" height="120" as="geometry" />
        </mxCell>
        <mxCell id="46WT86W8ZebrYgX9wmy_-7" value="STOP" style="ellipse;whiteSpace=wrap;html=1;fillColor=#e51400;fontColor=#ffffff;strokeColor=#B20000;" parent="1" vertex="1">
          <mxGeometry x="417" y="440" width="120" height="80" as="geometry" />
        </mxCell>
        <mxCell id="46WT86W8ZebrYgX9wmy_-9" value="3 - QUIT" style="text;html=1;align=center;verticalAlign=middle;resizable=0;points=[];autosize=1;strokeColor=none;fillColor=none;" parent="1" vertex="1">
          <mxGeometry x="318" y="430" width="70" height="30" as="geometry" />
        </mxCell>
        <mxCell id="46WT86W8ZebrYgX9wmy_-37" style="edgeStyle=orthogonalEdgeStyle;rounded=0;orthogonalLoop=1;jettySize=auto;html=1;exitX=0.5;exitY=1;exitDx=0;exitDy=0;fontFamily=Helvetica;fontSize=12;fontColor=default;" parent="1" source="46WT86W8ZebrYgX9wmy_-18" target="46WT86W8ZebrYgX9wmy_-36" edge="1">
          <mxGeometry relative="1" as="geometry" />
        </mxCell>
        <mxCell id="46WT86W8ZebrYgX9wmy_-18" value="BEGIN GAME&lt;div&gt;(STAGE 1)&lt;/div&gt;" style="shape=process;whiteSpace=wrap;html=1;backgroundOutline=1;fillColor=#1ba1e2;fontColor=#ffffff;strokeColor=#000000;" parent="1" vertex="1">
          <mxGeometry x="1591" y="20" width="120" height="60" as="geometry" />
        </mxCell>
        <mxCell id="46WT86W8ZebrYgX9wmy_-25" value="2 - CREDITS" style="text;html=1;align=center;verticalAlign=middle;resizable=0;points=[];autosize=1;strokeColor=none;fillColor=none;fontFamily=Helvetica;fontSize=12;fontColor=default;" parent="1" vertex="1">
          <mxGeometry x="133" y="430" width="90" height="30" as="geometry" />
        </mxCell>
        <mxCell id="46WT86W8ZebrYgX9wmy_-26" value="1 - BEGIN GAME" style="text;html=1;align=center;verticalAlign=middle;resizable=0;points=[];autosize=1;strokeColor=none;fillColor=none;fontFamily=Helvetica;fontSize=12;fontColor=default;" parent="1" vertex="1">
          <mxGeometry x="267" y="540" width="120" height="30" as="geometry" />
        </mxCell>
        <mxCell id="46WT86W8ZebrYgX9wmy_-28" value="CREDITS PAGE" style="shape=process;whiteSpace=wrap;html=1;backgroundOutline=1;strokeColor=#000000;align=center;verticalAlign=middle;fontFamily=Helvetica;fontSize=12;fontColor=#ffffff;fillColor=#1ba1e2;" parent="1" vertex="1">
          <mxGeometry y="450" width="120" height="60" as="geometry" />
        </mxCell>
        <mxCell id="46WT86W8ZebrYgX9wmy_-35" style="edgeStyle=orthogonalEdgeStyle;rounded=0;orthogonalLoop=1;jettySize=auto;html=1;exitX=1;exitY=0.5;exitDx=0;exitDy=0;fontFamily=Helvetica;fontSize=12;fontColor=default;" parent="1" source="46WT86W8ZebrYgX9wmy_-32" target="46WT86W8ZebrYgX9wmy_-34" edge="1">
          <mxGeometry relative="1" as="geometry" />
        </mxCell>
        <mxCell id="46WT86W8ZebrYgX9wmy_-32" value="CREDITS PAGE" style="shape=process;whiteSpace=wrap;html=1;backgroundOutline=1;strokeColor=#000000;align=center;verticalAlign=middle;fontFamily=Helvetica;fontSize=12;fontColor=#ffffff;fillColor=#1ba1e2;" parent="1" vertex="1">
          <mxGeometry y="780" width="120" height="60" as="geometry" />
        </mxCell>
        <mxCell id="46WT86W8ZebrYgX9wmy_-34" value="OUTPUT:&lt;br&gt;Credits Page" style="shape=parallelogram;perimeter=parallelogramPerimeter;whiteSpace=wrap;html=1;fixedSize=1;strokeColor=#BD7000;align=center;verticalAlign=middle;fontFamily=Helvetica;fontSize=12;fontColor=#000000;fillColor=#f0a30a;" parent="1" vertex="1">
          <mxGeometry x="218" y="780" width="120" height="60" as="geometry" />
        </mxCell>
        <mxCell id="46WT86W8ZebrYgX9wmy_-39" style="edgeStyle=orthogonalEdgeStyle;rounded=0;orthogonalLoop=1;jettySize=auto;html=1;exitX=0.5;exitY=1;exitDx=0;exitDy=0;fontFamily=Helvetica;fontSize=12;fontColor=default;" parent="1" source="46WT86W8ZebrYgX9wmy_-36" target="46WT86W8ZebrYgX9wmy_-38" edge="1">
          <mxGeometry relative="1" as="geometry" />
        </mxCell>
        <mxCell id="46WT86W8ZebrYgX9wmy_-36" value="OUTPUT&lt;div&gt;Game Context with a brief&amp;nbsp;&lt;/div&gt;&lt;div&gt;backstory for Riko.&lt;/div&gt;" style="shape=parallelogram;perimeter=parallelogramPerimeter;whiteSpace=wrap;html=1;fixedSize=1;strokeColor=#BD7000;align=center;verticalAlign=middle;fontFamily=Helvetica;fontSize=12;fontColor=#000000;fillColor=#f0a30a;" parent="1" vertex="1">
          <mxGeometry x="1536" y="130" width="229" height="80" as="geometry" />
        </mxCell>
        <mxCell id="oyWgZkVQvpPqm8uU8-76-6" style="edgeStyle=orthogonalEdgeStyle;rounded=0;orthogonalLoop=1;jettySize=auto;html=1;exitX=0.5;exitY=1;exitDx=0;exitDy=0;" parent="1" source="46WT86W8ZebrYgX9wmy_-38" target="oyWgZkVQvpPqm8uU8-76-5" edge="1">
          <mxGeometry relative="1" as="geometry" />
        </mxCell>
        <mxCell id="46WT86W8ZebrYgX9wmy_-38" value="INPUT BUTTON:&#xa;&quot;Click to Continue&quot;" style="shape=parallelogram;perimeter=parallelogramPerimeter;whiteSpace=wrap;fixedSize=1;strokeColor=#BD7000;align=center;verticalAlign=middle;fontFamily=Helvetica;fontSize=12;fontColor=#000000;fillColor=#f0a30a;" parent="1" vertex="1">
          <mxGeometry x="1564" y="260" width="173.5" height="70" as="geometry" />
        </mxCell>
        <mxCell id="oyWgZkVQvpPqm8uU8-76-3" value="StrikeThrough text symbolises that the desired feature&amp;nbsp;&lt;span style=&quot;background-color: initial;&quot;&gt;was not fully&amp;nbsp;&lt;/span&gt;&lt;div&gt;&lt;span style=&quot;background-color: initial;&quot;&gt;acomplished and was either removed or given up on&amp;nbsp;&lt;/span&gt;&lt;span style=&quot;background-color: initial;&quot;&gt;I decided to&amp;nbsp;&lt;/span&gt;&lt;/div&gt;&lt;div&gt;&lt;span style=&quot;background-color: initial;&quot;&gt;leave it in to not change much of the original flowchart&amp;nbsp;&lt;/span&gt;&lt;span style=&quot;background-color: initial;&quot;&gt;but also make&lt;/span&gt;&lt;/div&gt;&lt;div&gt;&lt;span style=&quot;background-color: initial;&quot;&gt;sure that the flowchart is fully accurate to the fully finalised game.&lt;/span&gt;&lt;/div&gt;" style="text;html=1;align=left;verticalAlign=middle;resizable=0;points=[];autosize=1;strokeColor=none;fillColor=none;" parent="1" vertex="1">
          <mxGeometry x="206" y="50" width="390" height="70" as="geometry" />
        </mxCell>
        <mxCell id="oyWgZkVQvpPqm8uU8-76-8" style="edgeStyle=orthogonalEdgeStyle;rounded=0;orthogonalLoop=1;jettySize=auto;html=1;exitX=0;exitY=0.5;exitDx=0;exitDy=0;" parent="1" source="oyWgZkVQvpPqm8uU8-76-5" target="oyWgZkVQvpPqm8uU8-76-7" edge="1">
          <mxGeometry relative="1" as="geometry" />
        </mxCell>
        <mxCell id="oyWgZkVQvpPqm8uU8-76-17" style="edgeStyle=orthogonalEdgeStyle;rounded=0;orthogonalLoop=1;jettySize=auto;html=1;exitX=1;exitY=0.5;exitDx=0;exitDy=0;" parent="1" source="oyWgZkVQvpPqm8uU8-76-5" target="oyWgZkVQvpPqm8uU8-76-16" edge="1">
          <mxGeometry relative="1" as="geometry" />
        </mxCell>
        <mxCell id="ohu0Xb9F8poQxh4BpGcP-9" style="edgeStyle=orthogonalEdgeStyle;rounded=0;orthogonalLoop=1;jettySize=auto;html=1;exitX=0.5;exitY=1;exitDx=0;exitDy=0;" parent="1" source="oyWgZkVQvpPqm8uU8-76-5" target="ohu0Xb9F8poQxh4BpGcP-8" edge="1">
          <mxGeometry relative="1" as="geometry" />
        </mxCell>
        <mxCell id="d6J_IraQt0iToFYRzMnh-6" style="edgeStyle=orthogonalEdgeStyle;rounded=0;orthogonalLoop=1;jettySize=auto;html=1;exitX=0;exitY=0.5;exitDx=0;exitDy=0;" parent="1" source="oyWgZkVQvpPqm8uU8-76-5" target="d6J_IraQt0iToFYRzMnh-5" edge="1">
          <mxGeometry relative="1" as="geometry" />
        </mxCell>
        <mxCell id="oyWgZkVQvpPqm8uU8-76-5" value="&lt;blockquote style=&quot;margin: 0 0 0 40px; border: none; padding: 0px;&quot;&gt;&lt;div style=&quot;&quot;&gt;&quot;Walking through the market, You reach a back&lt;/div&gt;&lt;div style=&quot;&quot;&gt;alley and stand before a metal heavy door shut.&lt;/div&gt;&lt;div style=&quot;&quot;&gt;You choose to:&quot;&lt;/div&gt;&lt;div style=&quot;&quot;&gt;1. Knock at the door&lt;/div&gt;&lt;div style=&quot;&quot;&gt;2. Pull out passcode&lt;/div&gt;&lt;div style=&quot;&quot;&gt;3. Back away and quit&lt;/div&gt;&lt;/blockquote&gt;" style="rhombus;whiteSpace=wrap;html=1;align=center;fillColor=#76608a;fontColor=#ffffff;strokeColor=#432D57;" parent="1" vertex="1">
          <mxGeometry x="1461.25" y="380" width="379.5" height="325" as="geometry" />
        </mxCell>
        <mxCell id="oyWgZkVQvpPqm8uU8-76-7" value="&lt;font color=&quot;#ffffff&quot;&gt;EndGame001&lt;/font&gt;" style="shape=process;whiteSpace=wrap;html=1;backgroundOutline=1;fillColor=#1BA1E2;" parent="1" vertex="1">
          <mxGeometry x="1261" y="440" width="120" height="60" as="geometry" />
        </mxCell>
        <mxCell id="oyWgZkVQvpPqm8uU8-76-9" value="3" style="text;html=1;align=center;verticalAlign=middle;resizable=0;points=[];autosize=1;strokeColor=none;fillColor=none;" parent="1" vertex="1">
          <mxGeometry x="1440" y="490" width="30" height="30" as="geometry" />
        </mxCell>
        <mxCell id="oyWgZkVQvpPqm8uU8-76-10" value="2" style="text;html=1;align=center;verticalAlign=middle;resizable=0;points=[];autosize=1;strokeColor=none;fillColor=none;" parent="1" vertex="1">
          <mxGeometry x="1815" y="490" width="30" height="30" as="geometry" />
        </mxCell>
        <mxCell id="oyWgZkVQvpPqm8uU8-76-12" value="1" style="text;html=1;align=center;verticalAlign=middle;resizable=0;points=[];autosize=1;strokeColor=none;fillColor=none;" parent="1" vertex="1">
          <mxGeometry x="1675" y="690" width="30" height="30" as="geometry" />
        </mxCell>
        <mxCell id="ohu0Xb9F8poQxh4BpGcP-2" style="edgeStyle=orthogonalEdgeStyle;rounded=0;orthogonalLoop=1;jettySize=auto;html=1;exitX=1;exitY=0.5;exitDx=0;exitDy=0;" parent="1" source="oyWgZkVQvpPqm8uU8-76-16" target="ohu0Xb9F8poQxh4BpGcP-1" edge="1">
          <mxGeometry relative="1" as="geometry" />
        </mxCell>
        <mxCell id="oyWgZkVQvpPqm8uU8-76-16" value="OUTPUT&lt;div&gt;&quot;You forget so easily, password is:&lt;br&gt;&#39;The Sun will rise again&#39; &quot;&lt;/div&gt;" style="shape=parallelogram;perimeter=parallelogramPerimeter;whiteSpace=wrap;html=1;fixedSize=1;fillColor=#f0a30a;fontColor=#000000;strokeColor=#BD7000;" parent="1" vertex="1">
          <mxGeometry x="1898" y="492.5" width="220" height="100" as="geometry" />
        </mxCell>
        <mxCell id="ohu0Xb9F8poQxh4BpGcP-11" style="edgeStyle=orthogonalEdgeStyle;rounded=0;orthogonalLoop=1;jettySize=auto;html=1;exitX=0.5;exitY=1;exitDx=0;exitDy=0;" parent="1" source="ohu0Xb9F8poQxh4BpGcP-1" target="ohu0Xb9F8poQxh4BpGcP-10" edge="1">
          <mxGeometry relative="1" as="geometry" />
        </mxCell>
        <mxCell id="ohu0Xb9F8poQxh4BpGcP-14" style="edgeStyle=orthogonalEdgeStyle;rounded=0;orthogonalLoop=1;jettySize=auto;html=1;exitX=1;exitY=0.5;exitDx=0;exitDy=0;" parent="1" source="ohu0Xb9F8poQxh4BpGcP-1" target="ohu0Xb9F8poQxh4BpGcP-15" edge="1">
          <mxGeometry relative="1" as="geometry">
            <mxPoint x="2519.9999999999995" y="515.2105263157896" as="targetPoint" />
          </mxGeometry>
        </mxCell>
        <mxCell id="ohu0Xb9F8poQxh4BpGcP-1" value="1. Immediately destroy chip&lt;div&gt;2.&amp;nbsp;&lt;span style=&quot;background-color: initial;&quot;&gt;Throw the chip away&lt;/span&gt;&lt;/div&gt;" style="rhombus;whiteSpace=wrap;html=1;fillColor=#76608a;fontColor=#ffffff;strokeColor=#432D57;" parent="1" vertex="1">
          <mxGeometry x="2190" y="473.75" width="180" height="137.5" as="geometry" />
        </mxCell>
        <mxCell id="ohu0Xb9F8poQxh4BpGcP-18" value="" style="edgeStyle=orthogonalEdgeStyle;rounded=0;orthogonalLoop=1;jettySize=auto;html=1;" parent="1" source="ohu0Xb9F8poQxh4BpGcP-8" target="ohu0Xb9F8poQxh4BpGcP-17" edge="1">
          <mxGeometry relative="1" as="geometry" />
        </mxCell>
        <mxCell id="ohu0Xb9F8poQxh4BpGcP-8" value="A mysterious voice&amp;nbsp; echoes from the other side with &quot;Passcode?&quot;" style="shape=parallelogram;perimeter=parallelogramPerimeter;whiteSpace=wrap;html=1;fixedSize=1;fillColor=#f0a30a;fontColor=#000000;strokeColor=#BD7000;" parent="1" vertex="1">
          <mxGeometry x="1541" y="800" width="220" height="90" as="geometry" />
        </mxCell>
        <mxCell id="ohu0Xb9F8poQxh4BpGcP-12" style="edgeStyle=orthogonalEdgeStyle;rounded=0;orthogonalLoop=1;jettySize=auto;html=1;exitX=0;exitY=0.5;exitDx=0;exitDy=0;" parent="1" source="ohu0Xb9F8poQxh4BpGcP-10" target="ohu0Xb9F8poQxh4BpGcP-8" edge="1">
          <mxGeometry relative="1" as="geometry" />
        </mxCell>
        <mxCell id="ohu0Xb9F8poQxh4BpGcP-10" value="OUTPUT/INPUT&lt;br&gt;Knock at the door" style="shape=parallelogram;perimeter=parallelogramPerimeter;whiteSpace=wrap;html=1;fixedSize=1;fillColor=#f0a30a;fontColor=#000000;strokeColor=#BD7000;" parent="1" vertex="1">
          <mxGeometry x="2220" y="815" width="120" height="60" as="geometry" />
        </mxCell>
        <mxCell id="ohu0Xb9F8poQxh4BpGcP-13" value="1" style="text;html=1;align=center;verticalAlign=middle;resizable=0;points=[];autosize=1;strokeColor=none;fillColor=none;" parent="1" vertex="1">
          <mxGeometry x="2290" y="600" width="30" height="30" as="geometry" />
        </mxCell>
        <mxCell id="ohu0Xb9F8poQxh4BpGcP-16" style="edgeStyle=orthogonalEdgeStyle;rounded=0;orthogonalLoop=1;jettySize=auto;html=1;exitX=0.5;exitY=1;exitDx=0;exitDy=0;entryX=1;entryY=0.5;entryDx=0;entryDy=0;" parent="1" source="ohu0Xb9F8poQxh4BpGcP-15" target="ohu0Xb9F8poQxh4BpGcP-10" edge="1">
          <mxGeometry relative="1" as="geometry">
            <Array as="points">
              <mxPoint x="2505" y="845" />
            </Array>
          </mxGeometry>
        </mxCell>
        <mxCell id="ohu0Xb9F8poQxh4BpGcP-15" value="OUTPUT&lt;br&gt;&quot;A bypasser hands you the chip thinking you dropped it" style="shape=parallelogram;perimeter=parallelogramPerimeter;whiteSpace=wrap;html=1;fixedSize=1;fillColor=#f0a30a;fontColor=#000000;strokeColor=#BD7000;" parent="1" vertex="1">
          <mxGeometry x="2445" y="512.5" width="120" height="60" as="geometry" />
        </mxCell>
        <mxCell id="ohu0Xb9F8poQxh4BpGcP-22" value="" style="edgeStyle=orthogonalEdgeStyle;rounded=0;orthogonalLoop=1;jettySize=auto;html=1;" parent="1" source="ohu0Xb9F8poQxh4BpGcP-17" target="ohu0Xb9F8poQxh4BpGcP-21" edge="1">
          <mxGeometry relative="1" as="geometry" />
        </mxCell>
        <mxCell id="ohu0Xb9F8poQxh4BpGcP-27" value="" style="edgeStyle=orthogonalEdgeStyle;rounded=0;orthogonalLoop=1;jettySize=auto;html=1;" parent="1" source="ohu0Xb9F8poQxh4BpGcP-17" target="ohu0Xb9F8poQxh4BpGcP-26" edge="1">
          <mxGeometry relative="1" as="geometry" />
        </mxCell>
        <mxCell id="ohu0Xb9F8poQxh4BpGcP-17" value="&lt;font style=&quot;font-size: 13px;&quot;&gt;You say either:&lt;/font&gt;&lt;div&gt;&lt;font style=&quot;font-size: 13px;&quot;&gt;&lt;br&gt;&lt;div style=&quot;&quot;&gt;&lt;span style=&quot;background-color: initial;&quot;&gt;1 - &quot;A NEW SUN BRINGS LIGHT AND WARMTH BEYOND THE HORIZON&quot;&lt;/span&gt;&lt;/div&gt;&lt;/font&gt;&lt;div&gt;&lt;div style=&quot;font-size: 13px;&quot;&gt;&lt;font style=&quot;font-size: 13px;&quot;&gt;2 - &quot;THE SUN WILL RISE AGAIN&quot;&lt;/font&gt;&lt;/div&gt;&lt;div style=&quot;font-size: 13px;&quot;&gt;&lt;font style=&quot;font-size: 13px;&quot;&gt;3 - &quot;THE SUN WILL SHINE BRIGHTER TOMORROW&quot;&lt;/font&gt;&lt;/div&gt;&lt;/div&gt;&lt;/div&gt;" style="rhombus;whiteSpace=wrap;html=1;align=center;fillColor=#76608a;fontColor=#ffffff;strokeColor=#432D57;" parent="1" vertex="1">
          <mxGeometry x="1434" y="980" width="434" height="280" as="geometry" />
        </mxCell>
        <mxCell id="ohu0Xb9F8poQxh4BpGcP-21" value="OUTPUT&lt;br&gt;&lt;div style=&quot;&quot;&gt;&lt;span style=&quot;background-color: initial;&quot;&gt;The door creaks open slowly, before you can react, a sharp, excruciating pain pierces through your chest—a silenced gunshot. As your limp body collapses to the ground, darkness creeping in, the figure&#39;s voice pierces throug: &lt;/span&gt;&lt;span style=&quot;background-color: initial;&quot;&gt;&quot;We do not deal with traitors, scum!&quot;&lt;/span&gt;&lt;span style=&quot;background-color: initial;&quot;&gt; Those final words echo in your fading consciousness as you draw your last breath.&lt;/span&gt;&lt;/div&gt;" style="shape=parallelogram;perimeter=parallelogramPerimeter;whiteSpace=wrap;html=1;fixedSize=1;align=center;fillColor=#f0a30a;fontColor=#000000;strokeColor=#BD7000;" parent="1" vertex="1">
          <mxGeometry x="2150" y="1024.5" width="450" height="191" as="geometry" />
        </mxCell>
        <mxCell id="ohu0Xb9F8poQxh4BpGcP-23" value="1 and 3" style="text;html=1;align=center;verticalAlign=middle;resizable=0;points=[];autosize=1;strokeColor=none;fillColor=none;" parent="1" vertex="1">
          <mxGeometry x="1840" y="1068" width="60" height="30" as="geometry" />
        </mxCell>
        <mxCell id="ohu0Xb9F8poQxh4BpGcP-24" value="2" style="text;html=1;align=center;verticalAlign=middle;resizable=0;points=[];autosize=1;strokeColor=none;fillColor=none;" parent="1" vertex="1">
          <mxGeometry x="2360" y="495" width="30" height="30" as="geometry" />
        </mxCell>
        <mxCell id="ohu0Xb9F8poQxh4BpGcP-25" value="2" style="text;html=1;align=center;verticalAlign=middle;resizable=0;points=[];autosize=1;strokeColor=none;fillColor=none;" parent="1" vertex="1">
          <mxGeometry x="1660" y="1260" width="30" height="30" as="geometry" />
        </mxCell>
        <mxCell id="ohu0Xb9F8poQxh4BpGcP-29" value="" style="edgeStyle=orthogonalEdgeStyle;rounded=0;orthogonalLoop=1;jettySize=auto;html=1;" parent="1" source="ohu0Xb9F8poQxh4BpGcP-26" target="ohu0Xb9F8poQxh4BpGcP-28" edge="1">
          <mxGeometry relative="1" as="geometry" />
        </mxCell>
        <mxCell id="ohu0Xb9F8poQxh4BpGcP-26" value="OUTPUT&lt;br&gt;The figure opens the door slowly and steps away before disappearing into another door. As you enter, you are striken with many different aisles, each lined up with dozens of perfectly lined up cybernetic gadgets, hacking tools, and weaponry, The vendor greets you." style="shape=parallelogram;perimeter=parallelogramPerimeter;whiteSpace=wrap;html=1;fixedSize=1;fillColor=#f0a30a;fontColor=#000000;strokeColor=#BD7000;" parent="1" vertex="1">
          <mxGeometry x="1486" y="1390" width="329" height="150" as="geometry" />
        </mxCell>
        <mxCell id="ohu0Xb9F8poQxh4BpGcP-31" value="" style="edgeStyle=orthogonalEdgeStyle;rounded=0;orthogonalLoop=1;jettySize=auto;html=1;" parent="1" source="ohu0Xb9F8poQxh4BpGcP-28" target="ohu0Xb9F8poQxh4BpGcP-30" edge="1">
          <mxGeometry relative="1" as="geometry" />
        </mxCell>
        <mxCell id="ohu0Xb9F8poQxh4BpGcP-33" value="" style="edgeStyle=orthogonalEdgeStyle;rounded=0;orthogonalLoop=1;jettySize=auto;html=1;" parent="1" source="ohu0Xb9F8poQxh4BpGcP-28" target="ohu0Xb9F8poQxh4BpGcP-34" edge="1">
          <mxGeometry relative="1" as="geometry">
            <mxPoint x="1920.25" y="1717.5" as="targetPoint" />
          </mxGeometry>
        </mxCell>
        <mxCell id="ohu0Xb9F8poQxh4BpGcP-28" value="You choose to:&lt;br&gt;1 - Greet vendor&lt;div&gt;2 - Ignore vendor and look around&lt;/div&gt;" style="rhombus;whiteSpace=wrap;html=1;fillColor=#76608a;fontColor=#ffffff;strokeColor=#432D57;" parent="1" vertex="1">
          <mxGeometry x="1531" y="1630" width="239.5" height="175" as="geometry" />
        </mxCell>
        <mxCell id="ohu0Xb9F8poQxh4BpGcP-36" style="edgeStyle=orthogonalEdgeStyle;rounded=0;orthogonalLoop=1;jettySize=auto;html=1;exitX=0.5;exitY=1;exitDx=0;exitDy=0;entryX=0.5;entryY=0;entryDx=0;entryDy=0;" parent="1" source="ohu0Xb9F8poQxh4BpGcP-30" target="ohu0Xb9F8poQxh4BpGcP-35" edge="1">
          <mxGeometry relative="1" as="geometry" />
        </mxCell>
        <mxCell id="ohu0Xb9F8poQxh4BpGcP-30" value="OUTPUT&lt;br&gt;You and the vendor do some small talk about your good old days as partners and you ask to go check out the supplies:&lt;br&gt;Gearset 1: NanoGrips, Anti-Gravity Boots, Drone Wrecker.&lt;div&gt;Gearset 2: RedX Jammer, Sonic Scanner, EMP Grenade&lt;/div&gt;" style="shape=parallelogram;perimeter=parallelogramPerimeter;whiteSpace=wrap;html=1;fixedSize=1;fillColor=#f0a30a;fontColor=#000000;strokeColor=#BD7000;" parent="1" vertex="1">
          <mxGeometry x="1498.5" y="1910" width="304" height="130" as="geometry" />
        </mxCell>
        <mxCell id="ohu0Xb9F8poQxh4BpGcP-40" value="" style="edgeStyle=orthogonalEdgeStyle;rounded=0;orthogonalLoop=1;jettySize=auto;html=1;" parent="1" source="ohu0Xb9F8poQxh4BpGcP-34" target="ohu0Xb9F8poQxh4BpGcP-39" edge="1">
          <mxGeometry relative="1" as="geometry" />
        </mxCell>
        <mxCell id="ohu0Xb9F8poQxh4BpGcP-34" value="&lt;div&gt;OUTPUT&lt;/div&gt;As you ignore the vendor, he turns to you and asks what you are doing thinking it was a joke" style="shape=parallelogram;perimeter=parallelogramPerimeter;whiteSpace=wrap;html=1;fixedSize=1;fillColor=#f0a30a;fontColor=#000000;strokeColor=#BD7000;" parent="1" vertex="1">
          <mxGeometry x="1884" y="1676.25" width="266" height="82.5" as="geometry" />
        </mxCell>
        <mxCell id="ohu0Xb9F8poQxh4BpGcP-76" style="edgeStyle=orthogonalEdgeStyle;rounded=0;orthogonalLoop=1;jettySize=auto;html=1;exitX=1;exitY=0.5;exitDx=0;exitDy=0;" parent="1" source="ohu0Xb9F8poQxh4BpGcP-35" target="ohu0Xb9F8poQxh4BpGcP-80" edge="1">
          <mxGeometry relative="1" as="geometry">
            <mxPoint x="2120" y="2340" as="targetPoint" />
          </mxGeometry>
        </mxCell>
        <mxCell id="ohu0Xb9F8poQxh4BpGcP-77" style="edgeStyle=orthogonalEdgeStyle;rounded=0;orthogonalLoop=1;jettySize=auto;html=1;exitX=0;exitY=0.5;exitDx=0;exitDy=0;" parent="1" source="ohu0Xb9F8poQxh4BpGcP-35" target="ohu0Xb9F8poQxh4BpGcP-78" edge="1">
          <mxGeometry relative="1" as="geometry">
            <mxPoint x="1200" y="2340" as="targetPoint" />
          </mxGeometry>
        </mxCell>
        <mxCell id="ohu0Xb9F8poQxh4BpGcP-35" value="You choose:&lt;br&gt;1 - Gearset 1&lt;div&gt;2 - Gearset 2&lt;/div&gt;" style="rhombus;whiteSpace=wrap;html=1;fillColor=#76608a;fontColor=#ffffff;strokeColor=#432D57;" parent="1" vertex="1">
          <mxGeometry x="1571" y="2110" width="159" height="100" as="geometry" />
        </mxCell>
        <mxCell id="ohu0Xb9F8poQxh4BpGcP-38" value="1" style="text;html=1;align=center;verticalAlign=middle;resizable=0;points=[];autosize=1;strokeColor=none;fillColor=none;" parent="1" vertex="1">
          <mxGeometry x="1675" y="1810" width="30" height="30" as="geometry" />
        </mxCell>
        <mxCell id="ohu0Xb9F8poQxh4BpGcP-48" value="" style="edgeStyle=orthogonalEdgeStyle;rounded=0;orthogonalLoop=1;jettySize=auto;html=1;" parent="1" source="ohu0Xb9F8poQxh4BpGcP-39" target="ohu0Xb9F8poQxh4BpGcP-47" edge="1">
          <mxGeometry relative="1" as="geometry" />
        </mxCell>
        <mxCell id="ohu0Xb9F8poQxh4BpGcP-54" style="edgeStyle=orthogonalEdgeStyle;rounded=0;orthogonalLoop=1;jettySize=auto;html=1;exitX=0.5;exitY=1;exitDx=0;exitDy=0;entryX=1;entryY=0.5;entryDx=0;entryDy=0;" parent="1" source="ohu0Xb9F8poQxh4BpGcP-39" target="ohu0Xb9F8poQxh4BpGcP-30" edge="1">
          <mxGeometry relative="1" as="geometry">
            <Array as="points">
              <mxPoint x="2442" y="1975" />
            </Array>
          </mxGeometry>
        </mxCell>
        <mxCell id="ohu0Xb9F8poQxh4BpGcP-39" value="1- Still choose to Ignore the vendor and walk past him to reach the supplies aisle&lt;div&gt;2 - Ask for his forgiveness and explain you had a bad day, then ask for supplies&lt;/div&gt;" style="rhombus;whiteSpace=wrap;html=1;fillColor=#76608a;fontColor=#ffffff;strokeColor=#432D57;" parent="1" vertex="1">
          <mxGeometry x="2275" y="1596.25" width="333" height="242.5" as="geometry" />
        </mxCell>
        <mxCell id="ohu0Xb9F8poQxh4BpGcP-104" style="edgeStyle=orthogonalEdgeStyle;rounded=0;orthogonalLoop=1;jettySize=auto;html=1;exitX=1;exitY=0.5;exitDx=0;exitDy=0;" parent="1" source="ohu0Xb9F8poQxh4BpGcP-47" target="ohu0Xb9F8poQxh4BpGcP-103" edge="1">
          <mxGeometry relative="1" as="geometry" />
        </mxCell>
        <mxCell id="d6J_IraQt0iToFYRzMnh-4" style="edgeStyle=orthogonalEdgeStyle;rounded=0;orthogonalLoop=1;jettySize=auto;html=1;exitX=1;exitY=0.5;exitDx=0;exitDy=0;entryX=0;entryY=0.5;entryDx=0;entryDy=0;" parent="1" source="ohu0Xb9F8poQxh4BpGcP-47" target="ohu0Xb9F8poQxh4BpGcP-60" edge="1">
          <mxGeometry relative="1" as="geometry" />
        </mxCell>
        <mxCell id="ohu0Xb9F8poQxh4BpGcP-47" value="OUTPUT&lt;br&gt;The vendor gets fed up of your attitude in his store and kicks you out, rendering you unable to complete the heist" style="shape=parallelogram;perimeter=parallelogramPerimeter;whiteSpace=wrap;html=1;fixedSize=1;fillColor=#f0a30a;fontColor=#000000;strokeColor=#BD7000;" parent="1" vertex="1">
          <mxGeometry x="2750" y="1651.25" width="275.5" height="132.5" as="geometry" />
        </mxCell>
        <mxCell id="ohu0Xb9F8poQxh4BpGcP-56" value="&lt;h1 style=&quot;margin-top: 0px;&quot;&gt;Game Brief:&lt;/h1&gt;&lt;p&gt;As you look into this flowchart, I recommend you also take a look into the brief documentation which gives a better backstory and overall specifications about the game and it&#39;s story&lt;/p&gt;" style="text;html=1;whiteSpace=wrap;overflow=hidden;rounded=0;" parent="1" vertex="1">
          <mxGeometry width="170" height="160" as="geometry" />
        </mxCell>
        <mxCell id="ohu0Xb9F8poQxh4BpGcP-57" value="BEGIN GAME&lt;div&gt;(STAGE 1)&lt;br&gt;&lt;/div&gt;" style="shape=process;whiteSpace=wrap;html=1;backgroundOutline=1;fillColor=#1ba1e2;fontColor=#ffffff;strokeColor=#000000;" parent="1" vertex="1">
          <mxGeometry x="211" y="618" width="120" height="60" as="geometry" />
        </mxCell>
        <mxCell id="ohu0Xb9F8poQxh4BpGcP-62" style="edgeStyle=orthogonalEdgeStyle;rounded=0;orthogonalLoop=1;jettySize=auto;html=1;exitX=1;exitY=0.5;exitDx=0;exitDy=0;entryX=0;entryY=0.5;entryDx=0;entryDy=0;" parent="1" source="ohu0Xb9F8poQxh4BpGcP-59" target="ohu0Xb9F8poQxh4BpGcP-116" edge="1">
          <mxGeometry relative="1" as="geometry">
            <mxPoint x="203" y="970" as="targetPoint" />
          </mxGeometry>
        </mxCell>
        <mxCell id="ohu0Xb9F8poQxh4BpGcP-59" value="LOSING MENU" style="shape=process;whiteSpace=wrap;html=1;backgroundOutline=1;fillColor=#1ba1e2;fontColor=#ffffff;strokeColor=#000000;" parent="1" vertex="1">
          <mxGeometry y="940" width="120" height="60" as="geometry" />
        </mxCell>
        <mxCell id="ohu0Xb9F8poQxh4BpGcP-60" value="LOSING MENU" style="shape=process;whiteSpace=wrap;html=1;backgroundOutline=1;fillColor=#1ba1e2;fontColor=#ffffff;strokeColor=#000000;" parent="1" vertex="1">
          <mxGeometry x="3120" y="1745" width="120" height="60" as="geometry" />
        </mxCell>
        <mxCell id="ohu0Xb9F8poQxh4BpGcP-68" style="edgeStyle=orthogonalEdgeStyle;rounded=0;orthogonalLoop=1;jettySize=auto;html=1;exitX=0.5;exitY=0;exitDx=0;exitDy=0;" parent="1" source="ohu0Xb9F8poQxh4BpGcP-63" target="ohu0Xb9F8poQxh4BpGcP-67" edge="1">
          <mxGeometry relative="1" as="geometry" />
        </mxCell>
        <mxCell id="ohu0Xb9F8poQxh4BpGcP-70" style="edgeStyle=orthogonalEdgeStyle;rounded=0;orthogonalLoop=1;jettySize=auto;html=1;exitX=0.5;exitY=1;exitDx=0;exitDy=0;" parent="1" source="ohu0Xb9F8poQxh4BpGcP-63" target="ohu0Xb9F8poQxh4BpGcP-69" edge="1">
          <mxGeometry relative="1" as="geometry" />
        </mxCell>
        <mxCell id="ohu0Xb9F8poQxh4BpGcP-71" style="edgeStyle=orthogonalEdgeStyle;rounded=0;orthogonalLoop=1;jettySize=auto;html=1;exitX=1;exitY=0.5;exitDx=0;exitDy=0;" parent="1" source="ohu0Xb9F8poQxh4BpGcP-63" target="ohu0Xb9F8poQxh4BpGcP-65" edge="1">
          <mxGeometry relative="1" as="geometry" />
        </mxCell>
        <mxCell id="ohu0Xb9F8poQxh4BpGcP-63" value="1 - Retry Game&lt;div&gt;2 - Quit Game&lt;/div&gt;&lt;div&gt;3 - Back to Menu&lt;/div&gt;" style="rhombus;whiteSpace=wrap;html=1;fillColor=#76608a;fontColor=#ffffff;strokeColor=#432D57;" parent="1" vertex="1">
          <mxGeometry x="426" y="910" width="200" height="120" as="geometry" />
        </mxCell>
        <mxCell id="ohu0Xb9F8poQxh4BpGcP-65" value="STOP" style="ellipse;whiteSpace=wrap;html=1;fillColor=#e51400;fontColor=#ffffff;strokeColor=#B20000;" parent="1" vertex="1">
          <mxGeometry x="648" y="935" width="169" height="70" as="geometry" />
        </mxCell>
        <mxCell id="ohu0Xb9F8poQxh4BpGcP-67" value="BEGIN GAME&lt;div&gt;(STAGE 1)&lt;br&gt;&lt;/div&gt;" style="shape=process;whiteSpace=wrap;html=1;backgroundOutline=1;fillColor=#1ba1e2;fontColor=#ffffff;strokeColor=#000000;" parent="1" vertex="1">
          <mxGeometry x="466" y="810" width="120" height="60" as="geometry" />
        </mxCell>
        <mxCell id="ohu0Xb9F8poQxh4BpGcP-69" value="MENU" style="shape=process;whiteSpace=wrap;html=1;backgroundOutline=1;fillColor=#1ba1e2;fontColor=#ffffff;strokeColor=#000000;" parent="1" vertex="1">
          <mxGeometry x="466" y="1088" width="120" height="60" as="geometry" />
        </mxCell>
        <mxCell id="ohu0Xb9F8poQxh4BpGcP-79" style="edgeStyle=orthogonalEdgeStyle;rounded=0;orthogonalLoop=1;jettySize=auto;html=1;exitX=1;exitY=0.5;exitDx=0;exitDy=0;entryX=0;entryY=1;entryDx=0;entryDy=0;" parent="1" source="ohu0Xb9F8poQxh4BpGcP-78" target="ohu0Xb9F8poQxh4BpGcP-35" edge="1">
          <mxGeometry relative="1" as="geometry" />
        </mxCell>
        <mxCell id="ohu0Xb9F8poQxh4BpGcP-87" value="" style="edgeStyle=orthogonalEdgeStyle;rounded=0;orthogonalLoop=1;jettySize=auto;html=1;" parent="1" source="ohu0Xb9F8poQxh4BpGcP-78" target="ohu0Xb9F8poQxh4BpGcP-86" edge="1">
          <mxGeometry relative="1" as="geometry">
            <Array as="points">
              <mxPoint x="1200" y="2650" />
            </Array>
          </mxGeometry>
        </mxCell>
        <mxCell id="ohu0Xb9F8poQxh4BpGcP-78" value="Confirm?" style="rhombus;whiteSpace=wrap;html=1;fillColor=#76608a;fontColor=#ffffff;strokeColor=#432D57;" parent="1" vertex="1">
          <mxGeometry x="1160" y="2338" width="80" height="80" as="geometry" />
        </mxCell>
        <mxCell id="ohu0Xb9F8poQxh4BpGcP-81" style="edgeStyle=orthogonalEdgeStyle;rounded=0;orthogonalLoop=1;jettySize=auto;html=1;exitX=0;exitY=0.5;exitDx=0;exitDy=0;entryX=1;entryY=1;entryDx=0;entryDy=0;" parent="1" source="ohu0Xb9F8poQxh4BpGcP-80" target="ohu0Xb9F8poQxh4BpGcP-35" edge="1">
          <mxGeometry relative="1" as="geometry" />
        </mxCell>
        <mxCell id="ohu0Xb9F8poQxh4BpGcP-88" style="edgeStyle=orthogonalEdgeStyle;rounded=0;orthogonalLoop=1;jettySize=auto;html=1;exitX=0.5;exitY=1;exitDx=0;exitDy=0;entryX=1;entryY=0.5;entryDx=0;entryDy=0;" parent="1" source="ohu0Xb9F8poQxh4BpGcP-80" target="ohu0Xb9F8poQxh4BpGcP-86" edge="1">
          <mxGeometry relative="1" as="geometry">
            <Array as="points">
              <mxPoint x="2120" y="2650" />
            </Array>
          </mxGeometry>
        </mxCell>
        <mxCell id="ohu0Xb9F8poQxh4BpGcP-80" value="Confirm?" style="rhombus;whiteSpace=wrap;html=1;fillColor=#76608a;fontColor=#ffffff;strokeColor=#432D57;" parent="1" vertex="1">
          <mxGeometry x="2080" y="2338" width="80" height="80" as="geometry" />
        </mxCell>
        <mxCell id="ohu0Xb9F8poQxh4BpGcP-82" value="No" style="text;html=1;align=center;verticalAlign=middle;resizable=0;points=[];autosize=1;strokeColor=none;fillColor=none;" parent="1" vertex="1">
          <mxGeometry x="1230" y="2338" width="40" height="30" as="geometry" />
        </mxCell>
        <mxCell id="ohu0Xb9F8poQxh4BpGcP-83" value="No" style="text;html=1;align=center;verticalAlign=middle;resizable=0;points=[];autosize=1;strokeColor=none;fillColor=none;" parent="1" vertex="1">
          <mxGeometry x="2048" y="2338" width="40" height="30" as="geometry" />
        </mxCell>
        <mxCell id="ohu0Xb9F8poQxh4BpGcP-84" value="Yes" style="text;html=1;align=center;verticalAlign=middle;resizable=0;points=[];autosize=1;strokeColor=none;fillColor=none;" parent="1" vertex="1">
          <mxGeometry x="2068" y="2418" width="40" height="30" as="geometry" />
        </mxCell>
        <mxCell id="ohu0Xb9F8poQxh4BpGcP-85" value="Yes" style="text;html=1;align=center;verticalAlign=middle;resizable=0;points=[];autosize=1;strokeColor=none;fillColor=none;" parent="1" vertex="1">
          <mxGeometry x="1221" y="2418" width="40" height="30" as="geometry" />
        </mxCell>
        <mxCell id="ohu0Xb9F8poQxh4BpGcP-90" style="edgeStyle=orthogonalEdgeStyle;rounded=0;orthogonalLoop=1;jettySize=auto;html=1;exitX=0.5;exitY=1;exitDx=0;exitDy=0;" parent="1" source="ohu0Xb9F8poQxh4BpGcP-86" target="ohu0Xb9F8poQxh4BpGcP-89" edge="1">
          <mxGeometry relative="1" as="geometry" />
        </mxCell>
        <mxCell id="ohu0Xb9F8poQxh4BpGcP-86" value="&lt;div&gt;OUTPUT&lt;/div&gt;You go home and starts to get mentally and physically prepared for the heist, do you wish to reflect on how to go about the heist? (You have little to no intel about the Vault)" style="shape=parallelogram;perimeter=parallelogramPerimeter;whiteSpace=wrap;html=1;fixedSize=1;fillColor=#f0a30a;fontColor=#000000;strokeColor=#BD7000;" parent="1" vertex="1">
          <mxGeometry x="1531" y="2590" width="239" height="110" as="geometry" />
        </mxCell>
        <mxCell id="ohu0Xb9F8poQxh4BpGcP-93" style="edgeStyle=orthogonalEdgeStyle;rounded=0;orthogonalLoop=1;jettySize=auto;html=1;exitX=1;exitY=0.5;exitDx=0;exitDy=0;" parent="1" source="ohu0Xb9F8poQxh4BpGcP-89" target="ohu0Xb9F8poQxh4BpGcP-92" edge="1">
          <mxGeometry relative="1" as="geometry" />
        </mxCell>
        <mxCell id="ohu0Xb9F8poQxh4BpGcP-130" style="edgeStyle=orthogonalEdgeStyle;rounded=0;orthogonalLoop=1;jettySize=auto;html=1;exitX=0.5;exitY=1;exitDx=0;exitDy=0;" parent="1" source="ohu0Xb9F8poQxh4BpGcP-89" target="ohu0Xb9F8poQxh4BpGcP-127" edge="1">
          <mxGeometry relative="1" as="geometry" />
        </mxCell>
        <mxCell id="ohu0Xb9F8poQxh4BpGcP-89" value="1 - Go to Heist&lt;br&gt;&lt;div&gt;2 - Reflect on Heist&lt;/div&gt;" style="rhombus;whiteSpace=wrap;html=1;fillColor=#76608a;fontColor=#ffffff;strokeColor=#432D57;" parent="1" vertex="1">
          <mxGeometry x="1575.5" y="2790" width="150" height="120" as="geometry" />
        </mxCell>
        <mxCell id="ohu0Xb9F8poQxh4BpGcP-95" style="edgeStyle=orthogonalEdgeStyle;rounded=0;orthogonalLoop=1;jettySize=auto;html=1;exitX=1;exitY=0.5;exitDx=0;exitDy=0;" parent="1" source="ohu0Xb9F8poQxh4BpGcP-92" target="ohu0Xb9F8poQxh4BpGcP-94" edge="1">
          <mxGeometry relative="1" as="geometry" />
        </mxCell>
        <mxCell id="ohu0Xb9F8poQxh4BpGcP-92" value="&quot;Tomorrow I must be at the top of my game in all aspects of it! I will make it!&quot;" style="shape=parallelogram;perimeter=parallelogramPerimeter;whiteSpace=wrap;html=1;fixedSize=1;fillColor=#f0a30a;fontColor=#000000;strokeColor=#BD7000;" parent="1" vertex="1">
          <mxGeometry x="1790" y="2815" width="190" height="70" as="geometry" />
        </mxCell>
        <mxCell id="ohu0Xb9F8poQxh4BpGcP-102" style="edgeStyle=orthogonalEdgeStyle;rounded=0;orthogonalLoop=1;jettySize=auto;html=1;exitX=1;exitY=0.5;exitDx=0;exitDy=0;" parent="1" source="ohu0Xb9F8poQxh4BpGcP-94" target="ohu0Xb9F8poQxh4BpGcP-101" edge="1">
          <mxGeometry relative="1" as="geometry" />
        </mxCell>
        <mxCell id="ohu0Xb9F8poQxh4BpGcP-131" style="edgeStyle=orthogonalEdgeStyle;rounded=0;orthogonalLoop=1;jettySize=auto;html=1;exitX=0.5;exitY=1;exitDx=0;exitDy=0;" parent="1" source="ohu0Xb9F8poQxh4BpGcP-94" target="ohu0Xb9F8poQxh4BpGcP-128" edge="1">
          <mxGeometry relative="1" as="geometry" />
        </mxCell>
        <mxCell id="ohu0Xb9F8poQxh4BpGcP-94" value="&lt;div&gt;1 - Go to heist&lt;/div&gt;2 - Reflect further on heist" style="rhombus;whiteSpace=wrap;html=1;fillColor=#76608a;fontColor=#ffffff;strokeColor=#432D57;" parent="1" vertex="1">
          <mxGeometry x="2048" y="2780" width="172" height="140" as="geometry" />
        </mxCell>
        <mxCell id="ohu0Xb9F8poQxh4BpGcP-96" value="2" style="text;html=1;align=center;verticalAlign=middle;resizable=0;points=[];autosize=1;strokeColor=none;fillColor=none;" parent="1" vertex="1">
          <mxGeometry x="1707.5" y="2815" width="30" height="30" as="geometry" />
        </mxCell>
        <mxCell id="ohu0Xb9F8poQxh4BpGcP-97" value="1" style="text;html=1;align=center;verticalAlign=middle;resizable=0;points=[];autosize=1;strokeColor=none;fillColor=none;" parent="1" vertex="1">
          <mxGeometry x="2088" y="2907" width="30" height="30" as="geometry" />
        </mxCell>
        <mxCell id="ohu0Xb9F8poQxh4BpGcP-98" value="1" style="text;html=1;align=center;verticalAlign=middle;resizable=0;points=[];autosize=1;strokeColor=none;fillColor=none;" parent="1" vertex="1">
          <mxGeometry x="1654" y="2895" width="30" height="30" as="geometry" />
        </mxCell>
        <mxCell id="ohu0Xb9F8poQxh4BpGcP-99" value="2" style="text;html=1;align=center;verticalAlign=middle;resizable=0;points=[];autosize=1;strokeColor=none;fillColor=none;" parent="1" vertex="1">
          <mxGeometry x="2220" y="2800" width="30" height="30" as="geometry" />
        </mxCell>
        <mxCell id="ohu0Xb9F8poQxh4BpGcP-119" value="" style="edgeStyle=orthogonalEdgeStyle;rounded=0;orthogonalLoop=1;jettySize=auto;html=1;" parent="1" source="ohu0Xb9F8poQxh4BpGcP-101" target="ohu0Xb9F8poQxh4BpGcP-118" edge="1">
          <mxGeometry relative="1" as="geometry" />
        </mxCell>
        <mxCell id="ohu0Xb9F8poQxh4BpGcP-101" value="&quot;My Agility, Inteligence, Skills and experience will help, Am I really ready?" style="shape=parallelogram;perimeter=parallelogramPerimeter;whiteSpace=wrap;html=1;fixedSize=1;fillColor=#f0a30a;fontColor=#000000;strokeColor=#BD7000;" parent="1" vertex="1">
          <mxGeometry x="2290" y="2805" width="230" height="90" as="geometry" />
        </mxCell>
        <mxCell id="ohu0Xb9F8poQxh4BpGcP-103" value="EndGame002" style="shape=process;whiteSpace=wrap;html=1;backgroundOutline=1;fillColor=#1ba1e2;fontColor=#ffffff;strokeColor=#000000;" parent="1" vertex="1">
          <mxGeometry x="3120" y="1616.25" width="120" height="60" as="geometry" />
        </mxCell>
        <mxCell id="ohu0Xb9F8poQxh4BpGcP-109" value="" style="edgeStyle=orthogonalEdgeStyle;rounded=0;orthogonalLoop=1;jettySize=auto;html=1;" parent="1" source="ohu0Xb9F8poQxh4BpGcP-106" target="ohu0Xb9F8poQxh4BpGcP-108" edge="1">
          <mxGeometry relative="1" as="geometry" />
        </mxCell>
        <mxCell id="ohu0Xb9F8poQxh4BpGcP-106" value="EndGame001" style="shape=process;whiteSpace=wrap;html=1;backgroundOutline=1;fillColor=#1ba1e2;fontColor=#ffffff;strokeColor=#000000;" parent="1" vertex="1">
          <mxGeometry x="30" y="1300" width="120" height="60" as="geometry" />
        </mxCell>
        <mxCell id="ohu0Xb9F8poQxh4BpGcP-108" value="OUTPUT&lt;br&gt;&quot;You have given up on the heist&quot;" style="shape=parallelogram;perimeter=parallelogramPerimeter;whiteSpace=wrap;html=1;fixedSize=1;fillColor=#f0a30a;fontColor=#000000;strokeColor=#BD7000;" parent="1" vertex="1">
          <mxGeometry x="217" y="1295" width="170" height="70" as="geometry" />
        </mxCell>
        <mxCell id="ohu0Xb9F8poQxh4BpGcP-110" value="" style="edgeStyle=orthogonalEdgeStyle;rounded=0;orthogonalLoop=1;jettySize=auto;html=1;" parent="1" source="ohu0Xb9F8poQxh4BpGcP-111" target="ohu0Xb9F8poQxh4BpGcP-112" edge="1">
          <mxGeometry relative="1" as="geometry" />
        </mxCell>
        <mxCell id="ohu0Xb9F8poQxh4BpGcP-111" value="EndGame002" style="shape=process;whiteSpace=wrap;html=1;backgroundOutline=1;fillColor=#1ba1e2;fontColor=#ffffff;strokeColor=#000000;" parent="1" vertex="1">
          <mxGeometry x="30" y="1415" width="120" height="60" as="geometry" />
        </mxCell>
        <mxCell id="ohu0Xb9F8poQxh4BpGcP-112" value="OUTPUT&lt;br&gt;&quot;You have been kicked out of the store, Heist is no longer!&quot;" style="shape=parallelogram;perimeter=parallelogramPerimeter;whiteSpace=wrap;html=1;fixedSize=1;fillColor=#f0a30a;fontColor=#000000;strokeColor=#BD7000;" parent="1" vertex="1">
          <mxGeometry x="203" y="1405" width="203" height="80" as="geometry" />
        </mxCell>
        <mxCell id="ohu0Xb9F8poQxh4BpGcP-117" style="edgeStyle=orthogonalEdgeStyle;rounded=0;orthogonalLoop=1;jettySize=auto;html=1;exitX=1;exitY=0.5;exitDx=0;exitDy=0;entryX=0;entryY=0.5;entryDx=0;entryDy=0;" parent="1" source="ohu0Xb9F8poQxh4BpGcP-116" target="ohu0Xb9F8poQxh4BpGcP-63" edge="1">
          <mxGeometry relative="1" as="geometry" />
        </mxCell>
        <mxCell id="ohu0Xb9F8poQxh4BpGcP-116" value="&lt;div&gt;OUTPUT&lt;/div&gt;Display of reason for death/arrest/surrender &quot;scene&quot; or description" style="shape=parallelogram;perimeter=parallelogramPerimeter;whiteSpace=wrap;html=1;fixedSize=1;fillColor=#f0a30a;fontColor=#000000;strokeColor=#BD7000;" parent="1" vertex="1">
          <mxGeometry x="211" y="930" width="150" height="80" as="geometry" />
        </mxCell>
        <mxCell id="ohu0Xb9F8poQxh4BpGcP-121" value="" style="edgeStyle=orthogonalEdgeStyle;rounded=0;orthogonalLoop=1;jettySize=auto;html=1;" parent="1" source="ohu0Xb9F8poQxh4BpGcP-118" target="ohu0Xb9F8poQxh4BpGcP-120" edge="1">
          <mxGeometry relative="1" as="geometry" />
        </mxCell>
        <mxCell id="ohu0Xb9F8poQxh4BpGcP-132" style="edgeStyle=orthogonalEdgeStyle;rounded=0;orthogonalLoop=1;jettySize=auto;html=1;exitX=0.5;exitY=1;exitDx=0;exitDy=0;" parent="1" source="ohu0Xb9F8poQxh4BpGcP-118" target="ohu0Xb9F8poQxh4BpGcP-129" edge="1">
          <mxGeometry relative="1" as="geometry" />
        </mxCell>
        <mxCell id="d6J_IraQt0iToFYRzMnh-1" style="edgeStyle=orthogonalEdgeStyle;rounded=0;orthogonalLoop=1;jettySize=auto;html=1;exitX=1;exitY=0.5;exitDx=0;exitDy=0;" parent="1" source="ohu0Xb9F8poQxh4BpGcP-118" target="ohu0Xb9F8poQxh4BpGcP-122" edge="1">
          <mxGeometry relative="1" as="geometry" />
        </mxCell>
        <mxCell id="ohu0Xb9F8poQxh4BpGcP-118" value="1 - Hell Yeah! (GO TO HEIST)&lt;div&gt;2 - Maybe this whole thing is a bad idea? (GIVE UP ON HEIST)&lt;/div&gt;" style="rhombus;whiteSpace=wrap;html=1;fillColor=#76608a;fontColor=#ffffff;strokeColor=#432D57;" parent="1" vertex="1">
          <mxGeometry x="2580" y="2765" width="252" height="170" as="geometry" />
        </mxCell>
        <mxCell id="ohu0Xb9F8poQxh4BpGcP-120" value="EndGame001" style="shape=process;whiteSpace=wrap;html=1;backgroundOutline=1;fillColor=#1ba1e2;fontColor=#ffffff;strokeColor=#000000;" parent="1" vertex="1">
          <mxGeometry x="3060" y="2730" width="120" height="60" as="geometry" />
        </mxCell>
        <mxCell id="ohu0Xb9F8poQxh4BpGcP-122" value="DEATH MENU" style="shape=process;whiteSpace=wrap;html=1;backgroundOutline=1;fillColor=#1ba1e2;fontColor=#ffffff;strokeColor=#000000;" parent="1" vertex="1">
          <mxGeometry x="3060" y="2895" width="120" height="60" as="geometry" />
        </mxCell>
        <mxCell id="ohu0Xb9F8poQxh4BpGcP-124" value="2" style="text;html=1;align=center;verticalAlign=middle;resizable=0;points=[];autosize=1;strokeColor=none;fillColor=none;" parent="1" vertex="1">
          <mxGeometry x="2805" y="2798" width="30" height="30" as="geometry" />
        </mxCell>
        <mxCell id="ohu0Xb9F8poQxh4BpGcP-125" value="1" style="text;html=1;align=center;verticalAlign=middle;resizable=0;points=[];autosize=1;strokeColor=none;fillColor=none;" parent="1" vertex="1">
          <mxGeometry x="2720" y="2925" width="30" height="30" as="geometry" />
        </mxCell>
        <mxCell id="d6J_IraQt0iToFYRzMnh-8" style="edgeStyle=orthogonalEdgeStyle;rounded=0;orthogonalLoop=1;jettySize=auto;html=1;exitX=0.5;exitY=1;exitDx=0;exitDy=0;entryX=0.5;entryY=0;entryDx=0;entryDy=0;" parent="1" source="ohu0Xb9F8poQxh4BpGcP-126" target="d6J_IraQt0iToFYRzMnh-7" edge="1">
          <mxGeometry relative="1" as="geometry" />
        </mxCell>
        <mxCell id="ohu0Xb9F8poQxh4BpGcP-126" value="HEIST START&lt;div&gt;(STAGE 2)&lt;/div&gt;" style="shape=process;whiteSpace=wrap;html=1;backgroundOutline=1;fillColor=#1ba1e2;fontColor=#ffffff;strokeColor=#000000;" parent="1" vertex="1">
          <mxGeometry x="510" y="2860" width="120" height="60" as="geometry" />
        </mxCell>
        <mxCell id="ohu0Xb9F8poQxh4BpGcP-127" value="HEIST START&lt;div&gt;(STAGE 2)&lt;/div&gt;" style="shape=process;whiteSpace=wrap;html=1;backgroundOutline=1;fillColor=#1ba1e2;fontColor=#ffffff;strokeColor=#000000;" parent="1" vertex="1">
          <mxGeometry x="1591" y="2937" width="120" height="60" as="geometry" />
        </mxCell>
        <mxCell id="ohu0Xb9F8poQxh4BpGcP-128" value="HEIST START&lt;div&gt;(STAGE 2)&lt;/div&gt;" style="shape=process;whiteSpace=wrap;html=1;backgroundOutline=1;fillColor=#1ba1e2;fontColor=#ffffff;strokeColor=#000000;" parent="1" vertex="1">
          <mxGeometry x="2074" y="2960" width="120" height="60" as="geometry" />
        </mxCell>
        <mxCell id="ohu0Xb9F8poQxh4BpGcP-129" value="HEIST START&lt;div&gt;(STAGE 2)&lt;/div&gt;" style="shape=process;whiteSpace=wrap;html=1;backgroundOutline=1;fillColor=#1ba1e2;fontColor=#ffffff;strokeColor=#000000;" parent="1" vertex="1">
          <mxGeometry x="2646" y="2970" width="120" height="60" as="geometry" />
        </mxCell>
        <mxCell id="d6J_IraQt0iToFYRzMnh-5" value="LOSING MENU" style="shape=process;whiteSpace=wrap;html=1;backgroundOutline=1;fillColor=#1ba1e2;fontColor=#ffffff;strokeColor=#000000;" parent="1" vertex="1">
          <mxGeometry x="1261" y="572.5" width="120" height="60" as="geometry" />
        </mxCell>
        <mxCell id="d6J_IraQt0iToFYRzMnh-10" style="edgeStyle=orthogonalEdgeStyle;rounded=0;orthogonalLoop=1;jettySize=auto;html=1;exitX=0.5;exitY=1;exitDx=0;exitDy=0;" parent="1" source="d6J_IraQt0iToFYRzMnh-7" target="d6J_IraQt0iToFYRzMnh-9" edge="1">
          <mxGeometry relative="1" as="geometry">
            <Array as="points">
              <mxPoint x="571" y="3090" />
              <mxPoint x="-370" y="3090" />
            </Array>
          </mxGeometry>
        </mxCell>
        <mxCell id="d6J_IraQt0iToFYRzMnh-12" style="edgeStyle=orthogonalEdgeStyle;rounded=0;orthogonalLoop=1;jettySize=auto;html=1;exitX=0.5;exitY=1;exitDx=0;exitDy=0;entryX=0.5;entryY=0;entryDx=0;entryDy=0;" parent="1" source="d6J_IraQt0iToFYRzMnh-7" target="d6J_IraQt0iToFYRzMnh-11" edge="1">
          <mxGeometry relative="1" as="geometry" />
        </mxCell>
        <mxCell id="d6J_IraQt0iToFYRzMnh-7" value="From this stage forward, the entirety of the game will depend solely on the gearset you have selected" style="whiteSpace=wrap;html=1;fillColor=#e3c800;fontColor=#000000;strokeColor=#B09500;" parent="1" vertex="1">
          <mxGeometry x="465" y="2970" width="210" height="90" as="geometry" />
        </mxCell>
        <mxCell id="3CZu82u7-v9dNgUdE9eK-45" style="edgeStyle=orthogonalEdgeStyle;rounded=0;orthogonalLoop=1;jettySize=auto;html=1;exitX=0.5;exitY=1;exitDx=0;exitDy=0;" edge="1" parent="1" source="d6J_IraQt0iToFYRzMnh-9" target="3CZu82u7-v9dNgUdE9eK-44">
          <mxGeometry relative="1" as="geometry" />
        </mxCell>
        <mxCell id="d6J_IraQt0iToFYRzMnh-9" value="Gearset 1" style="whiteSpace=wrap;html=1;fillColor=#e3c800;fontColor=#000000;strokeColor=#B09500;" parent="1" vertex="1">
          <mxGeometry x="-430" y="3110" width="120" height="60" as="geometry" />
        </mxCell>
        <mxCell id="3CZu82u7-v9dNgUdE9eK-71" value="" style="edgeStyle=orthogonalEdgeStyle;rounded=0;orthogonalLoop=1;jettySize=auto;html=1;" edge="1" parent="1" source="d6J_IraQt0iToFYRzMnh-11" target="3CZu82u7-v9dNgUdE9eK-72">
          <mxGeometry relative="1" as="geometry">
            <mxPoint x="1160.9999999999995" y="3260" as="targetPoint" />
          </mxGeometry>
        </mxCell>
        <mxCell id="d6J_IraQt0iToFYRzMnh-11" value="Gearset 1" style="whiteSpace=wrap;html=1;fillColor=#e3c800;fontColor=#000000;strokeColor=#B09500;" parent="1" vertex="1">
          <mxGeometry x="1101" y="3120" width="120" height="60" as="geometry" />
        </mxCell>
        <mxCell id="d6J_IraQt0iToFYRzMnh-16" style="edgeStyle=orthogonalEdgeStyle;rounded=0;orthogonalLoop=1;jettySize=auto;html=1;exitX=1;exitY=0.5;exitDx=0;exitDy=0;" parent="1" source="d6J_IraQt0iToFYRzMnh-13" edge="1" target="3CZu82u7-v9dNgUdE9eK-25">
          <mxGeometry relative="1" as="geometry">
            <mxPoint x="-50" y="3430" as="targetPoint" />
          </mxGeometry>
        </mxCell>
        <mxCell id="3CZu82u7-v9dNgUdE9eK-41" style="edgeStyle=orthogonalEdgeStyle;rounded=0;orthogonalLoop=1;jettySize=auto;html=1;exitX=0;exitY=0.5;exitDx=0;exitDy=0;" edge="1" parent="1" source="d6J_IraQt0iToFYRzMnh-13" target="3CZu82u7-v9dNgUdE9eK-39">
          <mxGeometry relative="1" as="geometry" />
        </mxCell>
        <mxCell id="d6J_IraQt0iToFYRzMnh-13" value="Start by gate:&lt;div&gt;1- Gate 1&lt;/div&gt;&lt;div&gt;2 - Gate 2&lt;/div&gt;" style="rhombus;whiteSpace=wrap;html=1;fillColor=#76608a;strokeColor=#432D57;fontColor=#ffffff;" parent="1" vertex="1">
          <mxGeometry x="-450" y="3310" width="160" height="110" as="geometry" />
        </mxCell>
        <mxCell id="3CZu82u7-v9dNgUdE9eK-3" value="" style="edgeStyle=orthogonalEdgeStyle;rounded=0;orthogonalLoop=1;jettySize=auto;html=1;" edge="1" parent="1" source="3CZu82u7-v9dNgUdE9eK-1" target="3CZu82u7-v9dNgUdE9eK-2">
          <mxGeometry relative="1" as="geometry" />
        </mxCell>
        <mxCell id="3CZu82u7-v9dNgUdE9eK-7" style="edgeStyle=orthogonalEdgeStyle;rounded=0;orthogonalLoop=1;jettySize=auto;html=1;exitX=0.5;exitY=1;exitDx=0;exitDy=0;" edge="1" parent="1" source="3CZu82u7-v9dNgUdE9eK-1" target="3CZu82u7-v9dNgUdE9eK-6">
          <mxGeometry relative="1" as="geometry" />
        </mxCell>
        <mxCell id="3CZu82u7-v9dNgUdE9eK-1" value="&lt;div&gt;&lt;span style=&quot;background-color: initial;&quot;&gt;M&lt;/span&gt;&lt;span style=&quot;background-color: initial;&quot;&gt;any chambers, chamber 1 and 2 are fillers while chamber 3 has a beast with one of needed components inside&lt;/span&gt;&lt;br&gt;&lt;/div&gt;" style="rhombus;whiteSpace=wrap;html=1;fillColor=#76608a;strokeColor=#432D57;fontColor=#ffffff;" vertex="1" parent="1">
          <mxGeometry x="-905" y="3610" width="330" height="240" as="geometry" />
        </mxCell>
        <mxCell id="3CZu82u7-v9dNgUdE9eK-21" value="" style="edgeStyle=orthogonalEdgeStyle;rounded=0;orthogonalLoop=1;jettySize=auto;html=1;" edge="1" parent="1" source="3CZu82u7-v9dNgUdE9eK-2" target="3CZu82u7-v9dNgUdE9eK-20">
          <mxGeometry relative="1" as="geometry" />
        </mxCell>
        <mxCell id="3CZu82u7-v9dNgUdE9eK-2" value="OUTPUT&lt;br&gt;&quot;You died&quot;&lt;div&gt;and how the beast killed you depending on choices&lt;/div&gt;" style="shape=parallelogram;perimeter=parallelogramPerimeter;whiteSpace=wrap;html=1;fixedSize=1;fillColor=#f0a30a;fontColor=#000000;strokeColor=#BD7000;" vertex="1" parent="1">
          <mxGeometry x="-1245" y="3690" width="170" height="80" as="geometry" />
        </mxCell>
        <mxCell id="3CZu82u7-v9dNgUdE9eK-4" value="Mistake when killing beast" style="text;html=1;align=center;verticalAlign=middle;resizable=0;points=[];autosize=1;strokeColor=none;fillColor=none;" vertex="1" parent="1">
          <mxGeometry x="-1065" y="3667" width="160" height="30" as="geometry" />
        </mxCell>
        <mxCell id="3CZu82u7-v9dNgUdE9eK-5" value="Success killing beast" style="text;html=1;align=center;verticalAlign=middle;resizable=0;points=[];autosize=1;strokeColor=none;fillColor=none;" vertex="1" parent="1">
          <mxGeometry x="-735" y="3840" width="130" height="30" as="geometry" />
        </mxCell>
        <mxCell id="3CZu82u7-v9dNgUdE9eK-9" value="" style="edgeStyle=orthogonalEdgeStyle;rounded=0;orthogonalLoop=1;jettySize=auto;html=1;" edge="1" parent="1" source="3CZu82u7-v9dNgUdE9eK-6" target="3CZu82u7-v9dNgUdE9eK-8">
          <mxGeometry relative="1" as="geometry" />
        </mxCell>
        <mxCell id="3CZu82u7-v9dNgUdE9eK-6" value="&lt;div&gt;OUTPUT&lt;/div&gt;Move onto next gate" style="shape=parallelogram;perimeter=parallelogramPerimeter;whiteSpace=wrap;html=1;fixedSize=1;fillColor=#f0a30a;fontColor=#000000;strokeColor=#BD7000;" vertex="1" parent="1">
          <mxGeometry x="-800" y="3890" width="120" height="60" as="geometry" />
        </mxCell>
        <mxCell id="3CZu82u7-v9dNgUdE9eK-12" style="edgeStyle=orthogonalEdgeStyle;rounded=0;orthogonalLoop=1;jettySize=auto;html=1;exitX=0.5;exitY=1;exitDx=0;exitDy=0;" edge="1" parent="1" source="3CZu82u7-v9dNgUdE9eK-8" target="3CZu82u7-v9dNgUdE9eK-10">
          <mxGeometry relative="1" as="geometry" />
        </mxCell>
        <mxCell id="3CZu82u7-v9dNgUdE9eK-17" value="" style="edgeStyle=orthogonalEdgeStyle;rounded=0;orthogonalLoop=1;jettySize=auto;html=1;" edge="1" parent="1" source="3CZu82u7-v9dNgUdE9eK-8" target="3CZu82u7-v9dNgUdE9eK-16">
          <mxGeometry relative="1" as="geometry" />
        </mxCell>
        <mxCell id="3CZu82u7-v9dNgUdE9eK-8" value="Able to open gate?" style="rhombus;whiteSpace=wrap;html=1;fillColor=#76608a;strokeColor=#432D57;fontColor=#ffffff;" vertex="1" parent="1">
          <mxGeometry x="-813.75" y="4000" width="147.5" height="110" as="geometry" />
        </mxCell>
        <mxCell id="3CZu82u7-v9dNgUdE9eK-14" value="" style="edgeStyle=orthogonalEdgeStyle;rounded=0;orthogonalLoop=1;jettySize=auto;html=1;" edge="1" parent="1" source="3CZu82u7-v9dNgUdE9eK-10" target="3CZu82u7-v9dNgUdE9eK-13">
          <mxGeometry relative="1" as="geometry" />
        </mxCell>
        <mxCell id="3CZu82u7-v9dNgUdE9eK-10" value="OUTPOUT&lt;br&gt;Gate is open, enter and look for microchip to end the game" style="shape=parallelogram;perimeter=parallelogramPerimeter;whiteSpace=wrap;html=1;fixedSize=1;fillColor=#f0a30a;fontColor=#000000;strokeColor=#BD7000;" vertex="1" parent="1">
          <mxGeometry x="-827" y="4150" width="175" height="90" as="geometry" />
        </mxCell>
        <mxCell id="3CZu82u7-v9dNgUdE9eK-13" value="Good End Game" style="shape=process;whiteSpace=wrap;html=1;backgroundOutline=1;fillColor=#1ba1e2;fontColor=#ffffff;strokeColor=#000000;" vertex="1" parent="1">
          <mxGeometry x="-799.5" y="4290" width="120" height="60" as="geometry" />
        </mxCell>
        <mxCell id="3CZu82u7-v9dNgUdE9eK-15" value="Yes" style="text;html=1;align=center;verticalAlign=middle;resizable=0;points=[];autosize=1;strokeColor=none;fillColor=none;" vertex="1" parent="1">
          <mxGeometry x="-809.5" y="4110" width="40" height="30" as="geometry" />
        </mxCell>
        <mxCell id="3CZu82u7-v9dNgUdE9eK-19" value="" style="edgeStyle=orthogonalEdgeStyle;rounded=0;orthogonalLoop=1;jettySize=auto;html=1;" edge="1" parent="1" source="3CZu82u7-v9dNgUdE9eK-16" target="3CZu82u7-v9dNgUdE9eK-18">
          <mxGeometry relative="1" as="geometry" />
        </mxCell>
        <mxCell id="3CZu82u7-v9dNgUdE9eK-16" value="OUTPUT&lt;br&gt;&quot;You were apprehended!&quot;" style="shape=parallelogram;perimeter=parallelogramPerimeter;whiteSpace=wrap;html=1;fixedSize=1;fillColor=#f0a30a;fontColor=#000000;strokeColor=#BD7000;" vertex="1" parent="1">
          <mxGeometry x="-1045" y="4025" width="120" height="60" as="geometry" />
        </mxCell>
        <mxCell id="3CZu82u7-v9dNgUdE9eK-18" value="Arrested End Game" style="shape=process;whiteSpace=wrap;html=1;backgroundOutline=1;fillColor=#1ba1e2;fontColor=#ffffff;strokeColor=#000000;" vertex="1" parent="1">
          <mxGeometry x="-1245" y="4025" width="120" height="60" as="geometry" />
        </mxCell>
        <mxCell id="3CZu82u7-v9dNgUdE9eK-20" value="D&lt;span style=&quot;background-color: initial;&quot;&gt;eath End Game&lt;/span&gt;" style="shape=process;whiteSpace=wrap;html=1;backgroundOutline=1;fillColor=#1ba1e2;fontColor=#ffffff;strokeColor=#000000;" vertex="1" parent="1">
          <mxGeometry x="-1470" y="3700" width="120" height="60" as="geometry" />
        </mxCell>
        <mxCell id="3CZu82u7-v9dNgUdE9eK-22" value="No" style="text;html=1;align=center;verticalAlign=middle;resizable=0;points=[];autosize=1;strokeColor=none;fillColor=none;" vertex="1" parent="1">
          <mxGeometry x="-883.75" y="4050" width="40" height="30" as="geometry" />
        </mxCell>
        <mxCell id="3CZu82u7-v9dNgUdE9eK-23" style="edgeStyle=orthogonalEdgeStyle;rounded=0;orthogonalLoop=1;jettySize=auto;html=1;exitX=0.5;exitY=1;exitDx=0;exitDy=0;" edge="1" parent="1" source="3CZu82u7-v9dNgUdE9eK-25" target="3CZu82u7-v9dNgUdE9eK-27">
          <mxGeometry relative="1" as="geometry" />
        </mxCell>
        <mxCell id="3CZu82u7-v9dNgUdE9eK-24" value="" style="edgeStyle=orthogonalEdgeStyle;rounded=0;orthogonalLoop=1;jettySize=auto;html=1;" edge="1" parent="1" source="3CZu82u7-v9dNgUdE9eK-25" target="3CZu82u7-v9dNgUdE9eK-31">
          <mxGeometry relative="1" as="geometry" />
        </mxCell>
        <mxCell id="3CZu82u7-v9dNgUdE9eK-25" value="Able to open gate?" style="rhombus;whiteSpace=wrap;html=1;fillColor=#76608a;strokeColor=#432D57;fontColor=#ffffff;" vertex="1" parent="1">
          <mxGeometry x="-101.25" y="3445" width="147.5" height="110" as="geometry" />
        </mxCell>
        <mxCell id="3CZu82u7-v9dNgUdE9eK-65" style="edgeStyle=orthogonalEdgeStyle;rounded=0;orthogonalLoop=1;jettySize=auto;html=1;exitX=0.5;exitY=1;exitDx=0;exitDy=0;entryX=0.5;entryY=0;entryDx=0;entryDy=0;" edge="1" parent="1" source="3CZu82u7-v9dNgUdE9eK-27" target="3CZu82u7-v9dNgUdE9eK-61">
          <mxGeometry relative="1" as="geometry" />
        </mxCell>
        <mxCell id="3CZu82u7-v9dNgUdE9eK-27" value="OUTPOUT&lt;br&gt;Gate is open, enter and look for microchip to go next gate" style="shape=parallelogram;perimeter=parallelogramPerimeter;whiteSpace=wrap;html=1;fixedSize=1;fillColor=#f0a30a;fontColor=#000000;strokeColor=#BD7000;" vertex="1" parent="1">
          <mxGeometry x="-100" y="3607" width="175" height="90" as="geometry" />
        </mxCell>
        <mxCell id="3CZu82u7-v9dNgUdE9eK-29" value="Yes" style="text;html=1;align=center;verticalAlign=middle;resizable=0;points=[];autosize=1;strokeColor=none;fillColor=none;" vertex="1" parent="1">
          <mxGeometry x="-72.5" y="3565" width="40" height="30" as="geometry" />
        </mxCell>
        <mxCell id="3CZu82u7-v9dNgUdE9eK-30" value="" style="edgeStyle=orthogonalEdgeStyle;rounded=0;orthogonalLoop=1;jettySize=auto;html=1;" edge="1" parent="1" source="3CZu82u7-v9dNgUdE9eK-31" target="3CZu82u7-v9dNgUdE9eK-32">
          <mxGeometry relative="1" as="geometry" />
        </mxCell>
        <mxCell id="3CZu82u7-v9dNgUdE9eK-31" value="OUTPUT&lt;br&gt;&quot;You were apprehended!&quot;" style="shape=parallelogram;perimeter=parallelogramPerimeter;whiteSpace=wrap;html=1;fixedSize=1;fillColor=#f0a30a;fontColor=#000000;strokeColor=#BD7000;" vertex="1" parent="1">
          <mxGeometry x="90" y="3470" width="120" height="60" as="geometry" />
        </mxCell>
        <mxCell id="3CZu82u7-v9dNgUdE9eK-32" value="Arrested End Game" style="shape=process;whiteSpace=wrap;html=1;backgroundOutline=1;fillColor=#1ba1e2;fontColor=#ffffff;strokeColor=#000000;" vertex="1" parent="1">
          <mxGeometry x="286" y="3470" width="120" height="60" as="geometry" />
        </mxCell>
        <mxCell id="3CZu82u7-v9dNgUdE9eK-33" value="No" style="text;html=1;align=center;verticalAlign=middle;resizable=0;points=[];autosize=1;strokeColor=none;fillColor=none;" vertex="1" parent="1">
          <mxGeometry x="40" y="3465" width="40" height="30" as="geometry" />
        </mxCell>
        <mxCell id="3CZu82u7-v9dNgUdE9eK-43" style="edgeStyle=orthogonalEdgeStyle;rounded=0;orthogonalLoop=1;jettySize=auto;html=1;exitX=0;exitY=0.5;exitDx=0;exitDy=0;" edge="1" parent="1" source="3CZu82u7-v9dNgUdE9eK-34" target="3CZu82u7-v9dNgUdE9eK-20">
          <mxGeometry relative="1" as="geometry" />
        </mxCell>
        <mxCell id="3CZu82u7-v9dNgUdE9eK-34" value="&lt;div&gt;OUTPUT&lt;/div&gt;Numpad pass wrong" style="shape=parallelogram;perimeter=parallelogramPerimeter;whiteSpace=wrap;html=1;fixedSize=1;fillColor=#f0a30a;fontColor=#000000;strokeColor=#BD7000;" vertex="1" parent="1">
          <mxGeometry x="-1050" y="3440" width="120" height="60" as="geometry" />
        </mxCell>
        <mxCell id="3CZu82u7-v9dNgUdE9eK-37" value="Numpad wrong" style="text;html=1;align=center;verticalAlign=middle;resizable=0;points=[];autosize=1;strokeColor=none;fillColor=none;" vertex="1" parent="1">
          <mxGeometry x="-880" y="3430" width="100" height="30" as="geometry" />
        </mxCell>
        <mxCell id="3CZu82u7-v9dNgUdE9eK-42" style="edgeStyle=orthogonalEdgeStyle;rounded=0;orthogonalLoop=1;jettySize=auto;html=1;exitX=0;exitY=0.5;exitDx=0;exitDy=0;" edge="1" parent="1" source="3CZu82u7-v9dNgUdE9eK-39" target="3CZu82u7-v9dNgUdE9eK-34">
          <mxGeometry relative="1" as="geometry" />
        </mxCell>
        <mxCell id="3CZu82u7-v9dNgUdE9eK-48" style="edgeStyle=orthogonalEdgeStyle;rounded=0;orthogonalLoop=1;jettySize=auto;html=1;exitX=0.5;exitY=1;exitDx=0;exitDy=0;" edge="1" parent="1" source="3CZu82u7-v9dNgUdE9eK-39" target="3CZu82u7-v9dNgUdE9eK-1">
          <mxGeometry relative="1" as="geometry" />
        </mxCell>
        <mxCell id="3CZu82u7-v9dNgUdE9eK-39" value="Numpad" style="rhombus;whiteSpace=wrap;html=1;fillColor=#76608a;fontColor=#ffffff;strokeColor=#432D57;" vertex="1" parent="1">
          <mxGeometry x="-790" y="3430" width="100" height="80" as="geometry" />
        </mxCell>
        <mxCell id="3CZu82u7-v9dNgUdE9eK-46" style="edgeStyle=orthogonalEdgeStyle;rounded=0;orthogonalLoop=1;jettySize=auto;html=1;exitX=0.5;exitY=1;exitDx=0;exitDy=0;" edge="1" parent="1" source="3CZu82u7-v9dNgUdE9eK-44" target="d6J_IraQt0iToFYRzMnh-13">
          <mxGeometry relative="1" as="geometry" />
        </mxCell>
        <mxCell id="3CZu82u7-v9dNgUdE9eK-44" value="CHECKPOINT" style="shape=process;whiteSpace=wrap;html=1;backgroundOutline=1;fillColor=#1ba1e2;fontColor=#ffffff;strokeColor=#000000;" vertex="1" parent="1">
          <mxGeometry x="-430" y="3200" width="120" height="60" as="geometry" />
        </mxCell>
        <mxCell id="3CZu82u7-v9dNgUdE9eK-47" value="Numpad right" style="text;html=1;align=center;verticalAlign=middle;resizable=0;points=[];autosize=1;strokeColor=none;fillColor=none;" vertex="1" parent="1">
          <mxGeometry x="-720" y="3510" width="100" height="30" as="geometry" />
        </mxCell>
        <mxCell id="3CZu82u7-v9dNgUdE9eK-49" value="" style="edgeStyle=orthogonalEdgeStyle;rounded=0;orthogonalLoop=1;jettySize=auto;html=1;" edge="1" parent="1" source="3CZu82u7-v9dNgUdE9eK-50" target="3CZu82u7-v9dNgUdE9eK-52">
          <mxGeometry relative="1" as="geometry" />
        </mxCell>
        <mxCell id="3CZu82u7-v9dNgUdE9eK-67" style="edgeStyle=orthogonalEdgeStyle;rounded=0;orthogonalLoop=1;jettySize=auto;html=1;exitX=0.5;exitY=1;exitDx=0;exitDy=0;" edge="1" parent="1" source="3CZu82u7-v9dNgUdE9eK-50" target="3CZu82u7-v9dNgUdE9eK-66">
          <mxGeometry relative="1" as="geometry" />
        </mxCell>
        <mxCell id="3CZu82u7-v9dNgUdE9eK-50" value="&lt;div&gt;&lt;span style=&quot;background-color: initial;&quot;&gt;M&lt;/span&gt;&lt;span style=&quot;background-color: initial;&quot;&gt;any chambers, chamber 1 and 2 are fillers while chamber 3 has a beast with one of needed components inside&lt;/span&gt;&lt;br&gt;&lt;/div&gt;" style="rhombus;whiteSpace=wrap;html=1;fillColor=#76608a;strokeColor=#432D57;fontColor=#ffffff;" vertex="1" parent="1">
          <mxGeometry x="-177.5" y="3940" width="330" height="240" as="geometry" />
        </mxCell>
        <mxCell id="3CZu82u7-v9dNgUdE9eK-51" value="" style="edgeStyle=orthogonalEdgeStyle;rounded=0;orthogonalLoop=1;jettySize=auto;html=1;" edge="1" parent="1" source="3CZu82u7-v9dNgUdE9eK-52" target="3CZu82u7-v9dNgUdE9eK-55">
          <mxGeometry relative="1" as="geometry" />
        </mxCell>
        <mxCell id="3CZu82u7-v9dNgUdE9eK-52" value="OUTPUT&lt;br&gt;&quot;You died&quot;&lt;div&gt;and how the beast killed you depending on choices&lt;/div&gt;" style="shape=parallelogram;perimeter=parallelogramPerimeter;whiteSpace=wrap;html=1;fixedSize=1;fillColor=#f0a30a;fontColor=#000000;strokeColor=#BD7000;" vertex="1" parent="1">
          <mxGeometry x="249.5" y="4020" width="170" height="80" as="geometry" />
        </mxCell>
        <mxCell id="3CZu82u7-v9dNgUdE9eK-53" value="Mistake when killing beast" style="text;html=1;align=center;verticalAlign=middle;resizable=0;points=[];autosize=1;strokeColor=none;fillColor=none;" vertex="1" parent="1">
          <mxGeometry x="98" y="4000" width="160" height="30" as="geometry" />
        </mxCell>
        <mxCell id="3CZu82u7-v9dNgUdE9eK-54" value="Success killing beast" style="text;html=1;align=center;verticalAlign=middle;resizable=0;points=[];autosize=1;strokeColor=none;fillColor=none;" vertex="1" parent="1">
          <mxGeometry x="2" y="4170" width="130" height="30" as="geometry" />
        </mxCell>
        <mxCell id="3CZu82u7-v9dNgUdE9eK-55" value="D&lt;span style=&quot;background-color: initial;&quot;&gt;eath End Game&lt;/span&gt;" style="shape=process;whiteSpace=wrap;html=1;backgroundOutline=1;fillColor=#1ba1e2;fontColor=#ffffff;strokeColor=#000000;" vertex="1" parent="1">
          <mxGeometry x="529" y="4030" width="120" height="60" as="geometry" />
        </mxCell>
        <mxCell id="3CZu82u7-v9dNgUdE9eK-56" style="edgeStyle=orthogonalEdgeStyle;rounded=0;orthogonalLoop=1;jettySize=auto;html=1;exitX=0;exitY=0.5;exitDx=0;exitDy=0;" edge="1" parent="1" source="3CZu82u7-v9dNgUdE9eK-57" target="3CZu82u7-v9dNgUdE9eK-55">
          <mxGeometry relative="1" as="geometry" />
        </mxCell>
        <mxCell id="3CZu82u7-v9dNgUdE9eK-57" value="&lt;div&gt;OUTPUT&lt;/div&gt;Numpad pass wrong" style="shape=parallelogram;perimeter=parallelogramPerimeter;whiteSpace=wrap;html=1;fixedSize=1;fillColor=#f0a30a;fontColor=#000000;strokeColor=#BD7000;" vertex="1" parent="1">
          <mxGeometry x="258" y="3765" width="153" height="70" as="geometry" />
        </mxCell>
        <mxCell id="3CZu82u7-v9dNgUdE9eK-58" value="Numpad wrong" style="text;html=1;align=center;verticalAlign=middle;resizable=0;points=[];autosize=1;strokeColor=none;fillColor=none;" vertex="1" parent="1">
          <mxGeometry x="43" y="3800" width="100" height="30" as="geometry" />
        </mxCell>
        <mxCell id="3CZu82u7-v9dNgUdE9eK-60" style="edgeStyle=orthogonalEdgeStyle;rounded=0;orthogonalLoop=1;jettySize=auto;html=1;exitX=0.5;exitY=1;exitDx=0;exitDy=0;" edge="1" parent="1" source="3CZu82u7-v9dNgUdE9eK-61" target="3CZu82u7-v9dNgUdE9eK-50">
          <mxGeometry relative="1" as="geometry" />
        </mxCell>
        <mxCell id="3CZu82u7-v9dNgUdE9eK-63" style="edgeStyle=orthogonalEdgeStyle;rounded=0;orthogonalLoop=1;jettySize=auto;html=1;exitX=1;exitY=0.5;exitDx=0;exitDy=0;entryX=0;entryY=0.5;entryDx=0;entryDy=0;" edge="1" parent="1" source="3CZu82u7-v9dNgUdE9eK-61" target="3CZu82u7-v9dNgUdE9eK-57">
          <mxGeometry relative="1" as="geometry" />
        </mxCell>
        <mxCell id="3CZu82u7-v9dNgUdE9eK-61" value="Numpad" style="rhombus;whiteSpace=wrap;html=1;fillColor=#76608a;fontColor=#ffffff;strokeColor=#432D57;" vertex="1" parent="1">
          <mxGeometry x="-62.5" y="3760" width="100" height="80" as="geometry" />
        </mxCell>
        <mxCell id="3CZu82u7-v9dNgUdE9eK-62" value="Numpad right" style="text;html=1;align=center;verticalAlign=middle;resizable=0;points=[];autosize=1;strokeColor=none;fillColor=none;" vertex="1" parent="1">
          <mxGeometry x="-128" y="3830" width="100" height="30" as="geometry" />
        </mxCell>
        <mxCell id="3CZu82u7-v9dNgUdE9eK-66" value="Good End Game" style="shape=process;whiteSpace=wrap;html=1;backgroundOutline=1;fillColor=#1ba1e2;fontColor=#ffffff;strokeColor=#000000;" vertex="1" parent="1">
          <mxGeometry x="-72.5" y="4220" width="120" height="60" as="geometry" />
        </mxCell>
        <mxCell id="3CZu82u7-v9dNgUdE9eK-74" style="edgeStyle=orthogonalEdgeStyle;rounded=0;orthogonalLoop=1;jettySize=auto;html=1;exitX=0.5;exitY=1;exitDx=0;exitDy=0;" edge="1" parent="1" source="3CZu82u7-v9dNgUdE9eK-72" target="3CZu82u7-v9dNgUdE9eK-73">
          <mxGeometry relative="1" as="geometry" />
        </mxCell>
        <mxCell id="3CZu82u7-v9dNgUdE9eK-72" value="This gearset is unable to make Riko survive the heist meaning whatever gate and whatever option you select in either will get Riko Killed" style="whiteSpace=wrap;html=1;fillColor=#e3c800;fontColor=#000000;strokeColor=#B09500;" vertex="1" parent="1">
          <mxGeometry x="1006" y="3260" width="310" height="150" as="geometry" />
        </mxCell>
        <mxCell id="3CZu82u7-v9dNgUdE9eK-73" value="Death End Game" style="shape=process;whiteSpace=wrap;html=1;backgroundOutline=1;fillColor=#1ba1e2;fontColor=#ffffff;strokeColor=#000000;" vertex="1" parent="1">
          <mxGeometry x="1101" y="3460" width="120" height="60" as="geometry" />
        </mxCell>
      </root>
    </mxGraphModel>
  </diagram>
</mxfile>
